<svg xmlns="http://www.w3.org/2000/svg" width="311.303" height="274.47" viewBox="0 0 311.303 274.47">
  <g id="logo" transform="translate(-32.84 0.503)">
    <path id="Shape" d="M155.145,273.461a17.976,17.976,0,0,1-8.267-1.928,18.268,18.268,0,0,1-6.429-5.568L3.48,77.123a18.115,18.115,0,0,1,3.169-24.7L65.336,4.133A17.379,17.379,0,0,1,76.863,0H233.426a17.376,17.376,0,0,1,11.526,4.133l58.687,48.291a18.163,18.163,0,0,1,3.17,24.7L169.84,265.965a17.644,17.644,0,0,1-14.7,7.5ZM76.863,18.164h0L18.176,66.455,155.145,255.3,292.113,66.455,233.426,18.164Z" transform="translate(33.356)" fill="#039be5" stroke="rgba(0,0,0,0.12)" stroke-width="1"/>
    <path id="Path" d="M50.487,14.723c-2.161-.048-6.435,1.057-7.636,10.139a57.181,57.181,0,0,0,4.8,30.753s-2.93,16.1-16.089,18.6S13.8,54.126,16.1,33.7C18.358,13.57,27,3.624,41.17,2.951V.116C36.944-.221,10.049-1.326,2.221,28.13c-8.5,32,9.173,50.5,23,52.424C39.1,82.524,46.549,72,50.439,63.832,54.329,72,61.821,82.476,75.652,80.554c13.879-1.97,31.5-20.422,23-52.424C90.828-1.326,63.934-.269,59.708.116V2.951C73.875,3.624,82.52,13.57,84.777,33.7c2.305,20.422-2.305,43.006-15.464,40.507s-16.089-18.6-16.089-18.6a57.642,57.642,0,0,0,4.8-30.753c-1.2-9.034-5.475-10.187-7.636-10.139Z" transform="translate(138.013 35.49)" fill="#039be5" stroke="#fff" stroke-width="1"/>
    <path id="Path-2" data-name="Path" d="M66.035,28.146c0,12.157-8.4,22.488-20.219,26.621v3.268H58.879c8.308-1.1,7.492-6.247,7.492-6.247h2.4V66.78H39.909l1.585-18.02a21.8,21.8,0,1,0-14.216,0l1.585,18.02H0V51.788H2.4s-.816,5.142,7.492,6.247H22.956V54.767C11.142,50.634,2.737,40.255,2.737,28.146c0-37.528,63.25-37.528,63.25,0Z" transform="translate(154.066 123.072)" fill="#039be5" stroke="#fff" stroke-width="1"/>
    <path id="Path-3" data-name="Path" d="M9.379,23.161h1.3A51.028,51.028,0,0,0,8.9,12.782l-.24-.769.768-.24a9.828,9.828,0,0,0,2.449-1.249c.048-.048.144-.1.192-.144L12.6,10l.528.384c.048.048.144.1.192.144a9.828,9.828,0,0,0,2.449,1.249l.768.24-.24.769a49.918,49.918,0,0,0-1.777,10.379h1.3A50.015,50.015,0,0,1,17.592,12.83l.192-.625h.672a8.109,8.109,0,0,0,4.706-1.3A4.143,4.143,0,0,0,25.18,7.256,2.683,2.683,0,0,0,23.307,4.9,3.719,3.719,0,0,0,19.8,6.054a12.847,12.847,0,0,0-2.545,3.988l-.288.721-.768-.24a10.653,10.653,0,0,1-1.969-.961l-.72-.481.48-.721a7.229,7.229,0,0,0,1.441-3.8,5.224,5.224,0,0,0-.865-3.36A2.786,2.786,0,0,0,12.645,0H12.6a2.636,2.636,0,0,0-1.969,1.2,5.224,5.224,0,0,0-.864,3.364,7.655,7.655,0,0,0,1.441,3.8l.48.721-.72.481A10.653,10.653,0,0,1,9,10.523l-.768.24-.288-.721A11.316,11.316,0,0,0,5.393,6.054,3.719,3.719,0,0,0,1.887,4.9,2.753,2.753,0,0,0,.014,7.256a4.089,4.089,0,0,0,2.017,3.652,7.456,7.456,0,0,0,4.706,1.3H7.41l.192.625A50.015,50.015,0,0,1,9.379,23.161Z" transform="translate(175.951 149.536)" fill="#039be5" stroke="#fff" stroke-width="1"/>
    <path id="Path-4" data-name="Path" d="M0,1.538H17.385V0H0Z" transform="translate(179.807 171.88)" fill="#039be5" stroke="#fff" stroke-width="1"/>
    <path id="Path-5" data-name="Path" d="M72.374,0,44.808,37.768l36.739,86.349L36.355,44.207,0,40.8l37.892-7.3Z" transform="translate(58.207 28.831)" fill="#039be5" stroke="#fff" stroke-width="1"/>
    <path id="Path-6" data-name="Path" d="M9.221,0,36.788,37.768,0,124.117l45.192-79.91L81.547,40.8,43.655,33.5Z" transform="translate(237.198 28.831)" fill="#039be5" stroke="#fff" stroke-width="1"/>
  </g>
</svg>
